<svg xmlns="http://www.w3.org/2000/svg" xmlns:xlink="http://www.w3.org/1999/xlink" width="200" zoomAndPan="magnify" viewBox="0 0 150 44.999999" height="60" preserveAspectRatio="xMidYMid meet" version="1.0"><defs><g/><clipPath id="93e020e7b0"><path d="M 0.480469 6 L 124.320312 6 L 124.320312 44 L 0.480469 44 Z M 0.480469 6 " clip-rule="nonzero"/></clipPath><clipPath id="0d2c72817d"><path d="M 38 16 L 52 16 L 52 37.921875 L 38 37.921875 Z M 38 16 " clip-rule="nonzero"/></clipPath><clipPath id="38f0efd88f"><rect x="0" width="125" y="0" height="38"/></clipPath><clipPath id="c30f57369a"><path d="M 0.320312 4 L 5 4 L 5 11 L 0.320312 11 Z M 0.320312 4 " clip-rule="nonzero"/></clipPath><clipPath id="1862cbacfa"><rect x="0" width="78" y="0" height="12"/></clipPath><clipPath id="bf12b3c058"><path d="M 24 3 L 96 3 L 96 16 L 24 16 Z M 24 3 " clip-rule="nonzero"/></clipPath><clipPath id="083d254923"><path d="M 34.136719 -17.6875 L 110.273438 4.472656 L 100.816406 36.957031 L 24.679688 14.796875 Z M 34.136719 -17.6875 " clip-rule="nonzero"/></clipPath><clipPath id="5c97a468fc"><path d="M 34.136719 -17.6875 L 110.273438 4.472656 L 100.816406 36.957031 L 24.679688 14.796875 Z M 34.136719 -17.6875 " clip-rule="nonzero"/></clipPath><clipPath id="f390b09962"><path d="M 91 1 L 109 1 L 109 21 L 91 21 Z M 91 1 " clip-rule="nonzero"/></clipPath><clipPath id="e39ca663f5"><path d="M 34.136719 -17.6875 L 110.273438 4.472656 L 100.816406 36.957031 L 24.679688 14.796875 Z M 34.136719 -17.6875 " clip-rule="nonzero"/></clipPath><clipPath id="a6c4cf6622"><path d="M 34.136719 -17.6875 L 110.273438 4.472656 L 100.816406 36.957031 L 24.679688 14.796875 Z M 34.136719 -17.6875 " clip-rule="nonzero"/></clipPath><clipPath id="6c47747f2c"><rect x="0" width="125" y="0" height="45"/></clipPath></defs><g transform="matrix(1, 0, 0, 1, 12, 0)"><g clip-path="url(#6c47747f2c)"><g clip-path="url(#93e020e7b0)"><g transform="matrix(1, 0, 0, 1, 0, 6)"><g clip-path="url(#38f0efd88f)"><g fill="#1e293b" fill-opacity="1"><g transform="translate(0.740174, 30.027522)"><g><path d="M 18.75 1.671875 L 11.953125 -16.375 L 5.15625 1.671875 L 0.3125 -20.734375 L 2.5 -20.734375 L 5.703125 -5.671875 L 11.953125 -21.953125 L 18.171875 -5.671875 L 21.40625 -20.734375 L 23.578125 -20.734375 Z M 18.75 1.671875 "/></g></g></g><g fill="#1e293b" fill-opacity="1"><g transform="translate(22.642057, 30.027522)"><g><path d="M 12.96875 -6.703125 C 12.96875 -8.003906 12.519531 -9.144531 11.625 -10.125 C 10.707031 -11.101562 9.578125 -11.59375 8.234375 -11.59375 C 6.890625 -11.59375 5.769531 -11.101562 4.875 -10.125 C 3.957031 -9.144531 3.5 -8.003906 3.5 -6.703125 C 3.5 -5.410156 3.957031 -4.273438 4.875 -3.296875 C 5.769531 -2.316406 6.890625 -1.828125 8.234375 -1.828125 C 9.578125 -1.828125 10.707031 -2.316406 11.625 -3.296875 C 12.519531 -4.273438 12.96875 -5.410156 12.96875 -6.703125 Z M 15.09375 0 L 12.96875 0 L 12.96875 -2.28125 C 12.84375 -2.125 12.71875 -1.972656 12.59375 -1.828125 C 11.3125 -0.398438 9.75 0.3125 7.90625 0.3125 C 6.050781 0.3125 4.492188 -0.398438 3.234375 -1.828125 C 1.992188 -3.210938 1.375 -4.835938 1.375 -6.703125 C 1.375 -8.578125 1.992188 -10.207031 3.234375 -11.59375 C 4.492188 -13.007812 6.050781 -13.71875 7.90625 -13.71875 C 9.75 -13.71875 11.3125 -13.007812 12.59375 -11.59375 C 12.71875 -11.445312 12.84375 -11.289062 12.96875 -11.125 L 12.96875 -13.421875 L 15.09375 -13.421875 Z M 15.09375 0 "/></g></g></g><g clip-path="url(#0d2c72817d)"><g fill="#1e293b" fill-opacity="1"><g transform="translate(38.046569, 30.027522)"><g><path d="M 4 7.625 L 1.40625 7.625 L 5.921875 -2.203125 L 0.3125 -13.421875 L 2.75 -13.421875 L 7.046875 -4.421875 L 10.890625 -13.421875 L 13.265625 -13.421875 Z M 4 7.625 "/></g></g></g></g><g fill="#1e293b" fill-opacity="1"><g transform="translate(49.027989, 30.027522)"><g><path d="M 1.921875 0 L 12.65625 -10.828125 C 13.570312 -11.742188 14.03125 -12.863281 14.03125 -14.1875 C 14.03125 -15.488281 13.5625 -16.59375 12.625 -17.5 C 11.664062 -18.414062 10.53125 -18.875 9.21875 -18.875 C 7.851562 -18.875 6.703125 -18.367188 5.765625 -17.359375 C 4.765625 -16.296875 4.328125 -15.125 4.453125 -13.84375 L 2.28125 -13.84375 C 2.207031 -15.84375 2.859375 -17.539062 4.234375 -18.9375 C 5.617188 -20.363281 7.304688 -21.078125 9.296875 -21.078125 C 11.210938 -21.078125 12.875 -20.40625 14.28125 -19.0625 C 15.632812 -17.71875 16.3125 -16.082031 16.3125 -14.15625 C 16.3125 -12.257812 15.640625 -10.640625 14.296875 -9.296875 L 7.078125 -2.140625 L 16.53125 -2.140625 L 16.53125 0 Z M 1.921875 0 "/></g></g></g><g fill="#1e293b" fill-opacity="1"><g transform="translate(65.805182, 30.027522)"><g><path d="M 5.640625 -7.625 L 13.171875 -7.625 L 9.421875 -17.171875 Z M 18.515625 0 L 16.203125 0 L 13.96875 -5.640625 L 4.84375 -5.640625 L 2.625 0 L 0.3125 0 L 9.421875 -22.171875 Z M 18.515625 0 "/></g></g></g><g fill="#1e293b" fill-opacity="1"><g transform="translate(82.64339, 30.027522)"><g><path d="M 4.234375 -1.921875 C 4.765625 -1.554688 5.457031 -1.375 6.3125 -1.375 C 8.257812 -1.375 9.234375 -2.101562 9.234375 -3.5625 C 9.234375 -4.414062 8.535156 -5.066406 7.140625 -5.515625 C 6.546875 -5.722656 5.914062 -5.90625 5.25 -6.0625 C 4.550781 -6.226562 3.910156 -6.441406 3.328125 -6.703125 C 2.628906 -7.035156 2.109375 -7.445312 1.765625 -7.9375 C 1.421875 -8.414062 1.25 -8.992188 1.25 -9.671875 C 1.25 -11.015625 1.71875 -12.019531 2.65625 -12.6875 C 3.59375 -13.375 4.710938 -13.71875 6.015625 -13.71875 C 7.304688 -13.71875 8.378906 -13.457031 9.234375 -12.9375 C 10.085938 -12.40625 10.671875 -11.457031 10.984375 -10.09375 L 8.6875 -10.09375 C 8.445312 -10.84375 8.09375 -11.34375 7.625 -11.59375 C 7.175781 -11.832031 6.617188 -11.953125 5.953125 -11.953125 C 5.273438 -11.953125 4.703125 -11.8125 4.234375 -11.53125 C 3.742188 -11.226562 3.5 -10.78125 3.5 -10.1875 C 3.5 -9.570312 3.707031 -9.125 4.125 -8.84375 C 4.507812 -8.582031 4.992188 -8.347656 5.578125 -8.140625 C 6.171875 -7.960938 6.8125 -7.800781 7.5 -7.65625 C 8.175781 -7.488281 8.816406 -7.265625 9.421875 -6.984375 C 10.804688 -6.335938 11.5 -5.289062 11.5 -3.84375 C 11.5 -2.394531 10.976562 -1.328125 9.9375 -0.640625 C 9.414062 -0.296875 8.835938 -0.03125 8.203125 0.15625 C 7.597656 0.3125 6.925781 0.390625 6.1875 0.390625 C 3.082031 0.390625 1.296875 -0.988281 0.828125 -3.75 L 3.078125 -3.75 C 3.304688 -2.875 3.691406 -2.265625 4.234375 -1.921875 Z M 4.234375 -1.921875 "/></g></g></g><g fill="#1e293b" fill-opacity="1"><g transform="translate(92.923206, 30.027522)"><g><path d="M 0.609375 -11.4375 L 0.609375 -13.421875 L 3.96875 -13.421875 L 3.96875 -18.640625 L 6.09375 -18.640625 L 6.09375 -13.421875 L 9.421875 -13.421875 L 9.421875 -11.4375 L 6.09375 -11.4375 L 6.09375 0 L 3.96875 0 L 3.96875 -11.4375 Z M 0.609375 -11.4375 "/></g></g></g><g fill="#1e293b" fill-opacity="1"><g transform="translate(100.976229, 30.027522)"><g><path d="M 9.1875 -10.640625 C 8.695312 -11.085938 8.164062 -11.3125 7.59375 -11.3125 C 7.039062 -11.3125 6.570312 -11.160156 6.1875 -10.859375 C 5.78125 -10.535156 5.445312 -10.148438 5.1875 -9.703125 C 4.675781 -8.804688 4.421875 -7.804688 4.421875 -6.703125 L 4.421875 0 L 2.28125 0 L 2.28125 -13.421875 L 4.421875 -13.421875 L 4.421875 -10.640625 L 4.515625 -11.1875 C 5.222656 -12.851562 6.332031 -13.6875 7.84375 -13.6875 C 8.3125 -13.6875 8.757812 -13.597656 9.1875 -13.421875 Z M 9.1875 -10.640625 "/></g></g></g><g fill="#1e293b" fill-opacity="1"><g transform="translate(108.480184, 30.027522)"><g><path d="M 13.265625 -6.765625 C 13.265625 -8.109375 12.785156 -9.257812 11.828125 -10.21875 C 10.878906 -11.175781 9.734375 -11.65625 8.390625 -11.65625 C 7.046875 -11.65625 5.894531 -11.175781 4.9375 -10.21875 C 3.976562 -9.257812 3.5 -8.109375 3.5 -6.765625 C 3.5 -5.441406 3.976562 -4.304688 4.9375 -3.359375 C 5.894531 -2.398438 7.046875 -1.921875 8.390625 -1.921875 C 9.734375 -1.921875 10.878906 -2.398438 11.828125 -3.359375 C 12.785156 -4.304688 13.265625 -5.441406 13.265625 -6.765625 Z M 15.40625 -6.765625 C 15.40625 -4.816406 14.722656 -3.171875 13.359375 -1.828125 C 11.953125 -0.460938 10.296875 0.21875 8.390625 0.21875 C 6.472656 0.21875 4.828125 -0.460938 3.453125 -1.828125 C 2.066406 -3.171875 1.375 -4.816406 1.375 -6.765625 C 1.375 -8.703125 2.066406 -10.363281 3.453125 -11.75 C 4.804688 -13.101562 6.453125 -13.78125 8.390625 -13.78125 C 10.316406 -13.78125 11.972656 -13.101562 13.359375 -11.75 C 14.722656 -10.363281 15.40625 -8.703125 15.40625 -6.765625 Z M 15.40625 -6.765625 "/></g></g></g></g></g></g><g transform="matrix(1, 0, 0, 1, 46, 33)"><g clip-path="url(#1862cbacfa)"><g clip-path="url(#c30f57369a)"><g fill="#1e293b" fill-opacity="1"><g transform="translate(0.336368, 10.229145)"><g><path d="M 0.308594 -5.164062 L 0.308594 -5.820312 L 4.152344 -5.820312 L 4.152344 -5.164062 L 2.601562 -5.164062 L 2.601562 0 L 1.863281 0 L 1.863281 -5.164062 Z M 0.308594 -5.164062 "/></g></g></g></g><g fill="#1e293b" fill-opacity="1"><g transform="translate(4.800061, 10.229145)"><g><path d="M 0.621094 0 L 0.621094 -6.210938 L 1.320312 -6.210938 L 1.320312 -3.332031 C 1.464844 -3.535156 1.648438 -3.691406 1.863281 -3.796875 C 2.078125 -3.90625 2.308594 -3.960938 2.554688 -3.960938 C 2.832031 -3.960938 3.085938 -3.890625 3.320312 -3.753906 C 3.558594 -3.621094 3.746094 -3.421875 3.894531 -3.167969 C 4.042969 -2.910156 4.113281 -2.597656 4.113281 -2.230469 L 4.113281 0 L 3.414062 0 L 3.414062 -2.136719 C 3.414062 -2.441406 3.324219 -2.710938 3.140625 -2.945312 C 2.957031 -3.183594 2.699219 -3.300781 2.367188 -3.300781 C 2.097656 -3.300781 1.851562 -3.199219 1.640625 -3.003906 C 1.425781 -2.808594 1.320312 -2.523438 1.320312 -2.152344 L 1.320312 0 Z M 0.621094 0 "/></g></g></g><g fill="#1e293b" fill-opacity="1"><g transform="translate(9.457828, 10.229145)"><g><path d="M 2.472656 0.078125 C 2.066406 0.078125 1.703125 -0.0117188 1.382812 -0.195312 C 1.058594 -0.375 0.808594 -0.621094 0.625 -0.933594 C 0.441406 -1.246094 0.347656 -1.597656 0.347656 -1.980469 C 0.347656 -2.347656 0.4375 -2.679688 0.613281 -2.980469 C 0.792969 -3.277344 1.03125 -3.515625 1.328125 -3.695312 C 1.628906 -3.871094 1.960938 -3.960938 2.324219 -3.960938 C 2.679688 -3.960938 3.007812 -3.875 3.304688 -3.703125 C 3.601562 -3.535156 3.839844 -3.304688 4.015625 -3.015625 C 4.195312 -2.726562 4.28125 -2.398438 4.28125 -2.03125 L 4.28125 -1.746094 L 1.746094 -1.746094 C 1.632812 -1.746094 1.519531 -1.75 1.402344 -1.757812 C 1.289062 -1.769531 1.171875 -1.78125 1.0625 -1.796875 C 1.109375 -1.453125 1.265625 -1.164062 1.53125 -0.929688 C 1.796875 -0.699219 2.109375 -0.582031 2.476562 -0.582031 C 2.722656 -0.582031 2.953125 -0.636719 3.164062 -0.75 C 3.375 -0.863281 3.546875 -1.011719 3.675781 -1.195312 L 3.867188 -0.402344 C 3.683594 -0.25 3.472656 -0.132812 3.230469 -0.046875 C 2.992188 0.0351562 2.738281 0.078125 2.472656 0.078125 Z M 1.042969 -2.269531 C 1.273438 -2.308594 1.507812 -2.328125 1.746094 -2.328125 L 3.035156 -2.328125 C 3.128906 -2.328125 3.222656 -2.324219 3.316406 -2.320312 C 3.40625 -2.3125 3.503906 -2.304688 3.597656 -2.296875 C 3.535156 -2.597656 3.386719 -2.847656 3.144531 -3.042969 C 2.902344 -3.238281 2.628906 -3.339844 2.324219 -3.339844 C 2.007812 -3.339844 1.730469 -3.234375 1.496094 -3.023438 C 1.257812 -2.816406 1.105469 -2.5625 1.042969 -2.269531 Z M 1.042969 -2.269531 "/></g></g></g><g fill="#1e293b" fill-opacity="1"><g transform="translate(14.050903, 10.229145)"><g/></g></g><g fill="#1e293b" fill-opacity="1"><g transform="translate(15.99164, 10.229145)"><g><path d="M 0.816406 0 L 0.816406 -5.820312 L 3.6875 -5.820312 L 3.6875 -5.164062 L 1.550781 -5.164062 L 1.550781 -3.921875 L 3.492188 -3.921875 L 3.492188 -3.261719 L 1.550781 -3.261719 L 1.550781 0 Z M 0.816406 0 "/></g></g></g><g fill="#1e293b" fill-opacity="1"><g transform="translate(19.873112, 10.229145)"><g><path d="M 2.101562 0.078125 C 1.832031 0.078125 1.578125 0.0078125 1.339844 -0.125 C 1.101562 -0.261719 0.910156 -0.460938 0.761719 -0.71875 C 0.617188 -0.976562 0.542969 -1.289062 0.542969 -1.648438 L 0.542969 -3.882812 L 1.242188 -3.882812 L 1.242188 -1.746094 C 1.242188 -1.441406 1.332031 -1.167969 1.515625 -0.933594 C 1.699219 -0.699219 1.957031 -0.582031 2.289062 -0.582031 C 2.5625 -0.582031 2.804688 -0.679688 3.019531 -0.875 C 3.230469 -1.074219 3.339844 -1.355469 3.339844 -1.726562 L 3.339844 -3.882812 L 4.035156 -3.882812 L 4.035156 0 L 3.390625 0 L 3.390625 -0.628906 C 3.246094 -0.398438 3.0625 -0.222656 2.835938 -0.101562 C 2.609375 0.015625 2.367188 0.078125 2.101562 0.078125 Z M 2.101562 0.078125 "/></g></g></g><g fill="#1e293b" fill-opacity="1"><g transform="translate(24.530878, 10.229145)"><g><path d="M 1.074219 0 L 1.074219 -3.300781 L 0.195312 -3.300781 L 0.195312 -3.882812 L 1.09375 -3.882812 L 1.09375 -5.175781 L 1.753906 -5.175781 L 1.753906 -3.882812 L 2.71875 -3.882812 L 2.71875 -3.300781 L 1.773438 -3.300781 L 1.773438 0 Z M 1.074219 0 "/></g></g></g><g fill="#1e293b" fill-opacity="1"><g transform="translate(27.441982, 10.229145)"><g><path d="M 2.101562 0.078125 C 1.832031 0.078125 1.578125 0.0078125 1.339844 -0.125 C 1.101562 -0.261719 0.910156 -0.460938 0.761719 -0.71875 C 0.617188 -0.976562 0.542969 -1.289062 0.542969 -1.648438 L 0.542969 -3.882812 L 1.242188 -3.882812 L 1.242188 -1.746094 C 1.242188 -1.441406 1.332031 -1.167969 1.515625 -0.933594 C 1.699219 -0.699219 1.957031 -0.582031 2.289062 -0.582031 C 2.5625 -0.582031 2.804688 -0.679688 3.019531 -0.875 C 3.230469 -1.074219 3.339844 -1.355469 3.339844 -1.726562 L 3.339844 -3.882812 L 4.035156 -3.882812 L 4.035156 0 L 3.390625 0 L 3.390625 -0.628906 C 3.246094 -0.398438 3.0625 -0.222656 2.835938 -0.101562 C 2.609375 0.015625 2.367188 0.078125 2.101562 0.078125 Z M 2.101562 0.078125 "/></g></g></g><g fill="#1e293b" fill-opacity="1"><g transform="translate(32.099749, 10.229145)"><g><path d="M 0.621094 0 L 0.621094 -3.882812 L 1.269531 -3.882812 L 1.269531 -3.167969 C 1.40625 -3.398438 1.589844 -3.582031 1.816406 -3.714844 C 2.046875 -3.851562 2.316406 -3.921875 2.632812 -3.921875 L 2.808594 -3.222656 C 2.726562 -3.246094 2.628906 -3.261719 2.523438 -3.261719 C 2.160156 -3.261719 1.871094 -3.144531 1.648438 -2.914062 C 1.429688 -2.683594 1.320312 -2.355469 1.320312 -1.929688 L 1.320312 0 Z M 0.621094 0 "/></g></g></g><g fill="#1e293b" fill-opacity="1"><g transform="translate(35.010853, 10.229145)"><g><path d="M 2.472656 0.078125 C 2.066406 0.078125 1.703125 -0.0117188 1.382812 -0.195312 C 1.058594 -0.375 0.808594 -0.621094 0.625 -0.933594 C 0.441406 -1.246094 0.347656 -1.597656 0.347656 -1.980469 C 0.347656 -2.347656 0.4375 -2.679688 0.613281 -2.980469 C 0.792969 -3.277344 1.03125 -3.515625 1.328125 -3.695312 C 1.628906 -3.871094 1.960938 -3.960938 2.324219 -3.960938 C 2.679688 -3.960938 3.007812 -3.875 3.304688 -3.703125 C 3.601562 -3.535156 3.839844 -3.304688 4.015625 -3.015625 C 4.195312 -2.726562 4.28125 -2.398438 4.28125 -2.03125 L 4.28125 -1.746094 L 1.746094 -1.746094 C 1.632812 -1.746094 1.519531 -1.75 1.402344 -1.757812 C 1.289062 -1.769531 1.171875 -1.78125 1.0625 -1.796875 C 1.109375 -1.453125 1.265625 -1.164062 1.53125 -0.929688 C 1.796875 -0.699219 2.109375 -0.582031 2.476562 -0.582031 C 2.722656 -0.582031 2.953125 -0.636719 3.164062 -0.75 C 3.375 -0.863281 3.546875 -1.011719 3.675781 -1.195312 L 3.867188 -0.402344 C 3.683594 -0.25 3.472656 -0.132812 3.230469 -0.046875 C 2.992188 0.0351562 2.738281 0.078125 2.472656 0.078125 Z M 1.042969 -2.269531 C 1.273438 -2.308594 1.507812 -2.328125 1.746094 -2.328125 L 3.035156 -2.328125 C 3.128906 -2.328125 3.222656 -2.324219 3.316406 -2.320312 C 3.40625 -2.3125 3.503906 -2.304688 3.597656 -2.296875 C 3.535156 -2.597656 3.386719 -2.847656 3.144531 -3.042969 C 2.902344 -3.238281 2.628906 -3.339844 2.324219 -3.339844 C 2.007812 -3.339844 1.730469 -3.234375 1.496094 -3.023438 C 1.257812 -2.816406 1.105469 -2.5625 1.042969 -2.269531 Z M 1.042969 -2.269531 "/></g></g></g><g fill="#1e293b" fill-opacity="1"><g transform="translate(39.603928, 10.229145)"><g><path d="M 0.0390625 0.96875 C 0.234375 0.730469 0.390625 0.449219 0.507812 0.128906 C 0.625 -0.191406 0.6875 -0.554688 0.6875 -0.96875 L 1.382812 -0.96875 C 1.382812 -0.605469 1.332031 -0.257812 1.230469 0.0664062 C 1.132812 0.394531 0.992188 0.695312 0.816406 0.96875 Z M 0.0390625 0.96875 "/></g></g></g><g fill="#1e293b" fill-opacity="1"><g transform="translate(41.35059, 10.229145)"><g/></g></g><g fill="#1e293b" fill-opacity="1"><g transform="translate(43.29133, 10.229145)"><g><path d="M 0.816406 0 L 0.816406 -5.820312 L 2.722656 -5.820312 C 3.25 -5.820312 3.707031 -5.734375 4.097656 -5.5625 C 4.488281 -5.390625 4.8125 -5.164062 5.066406 -4.878906 C 5.320312 -4.59375 5.507812 -4.28125 5.632812 -3.9375 C 5.757812 -3.59375 5.820312 -3.25 5.820312 -2.910156 C 5.820312 -2.570312 5.757812 -2.230469 5.632812 -1.886719 C 5.507812 -1.542969 5.320312 -1.230469 5.066406 -0.945312 C 4.8125 -0.660156 4.488281 -0.429688 4.097656 -0.257812 C 3.707031 -0.0859375 3.25 0 2.722656 0 Z M 1.550781 -0.660156 L 2.644531 -0.660156 C 3.09375 -0.660156 3.472656 -0.730469 3.777344 -0.871094 C 4.085938 -1.011719 4.332031 -1.195312 4.523438 -1.421875 C 4.710938 -1.644531 4.847656 -1.890625 4.933594 -2.152344 C 5.015625 -2.417969 5.058594 -2.667969 5.058594 -2.910156 C 5.058594 -3.152344 5.015625 -3.40625 4.933594 -3.667969 C 4.847656 -3.929688 4.710938 -4.175781 4.523438 -4.402344 C 4.332031 -4.628906 4.085938 -4.8125 3.777344 -4.953125 C 3.472656 -5.09375 3.09375 -5.164062 2.644531 -5.164062 L 1.550781 -5.164062 Z M 1.550781 -0.660156 "/></g></g></g><g fill="#1e293b" fill-opacity="1"><g transform="translate(49.501683, 10.229145)"><g><path d="M 2.472656 0.078125 C 2.066406 0.078125 1.703125 -0.0117188 1.382812 -0.195312 C 1.058594 -0.375 0.808594 -0.621094 0.625 -0.933594 C 0.441406 -1.246094 0.347656 -1.597656 0.347656 -1.980469 C 0.347656 -2.347656 0.4375 -2.679688 0.613281 -2.980469 C 0.792969 -3.277344 1.03125 -3.515625 1.328125 -3.695312 C 1.628906 -3.871094 1.960938 -3.960938 2.324219 -3.960938 C 2.679688 -3.960938 3.007812 -3.875 3.304688 -3.703125 C 3.601562 -3.535156 3.839844 -3.304688 4.015625 -3.015625 C 4.195312 -2.726562 4.28125 -2.398438 4.28125 -2.03125 L 4.28125 -1.746094 L 1.746094 -1.746094 C 1.632812 -1.746094 1.519531 -1.75 1.402344 -1.757812 C 1.289062 -1.769531 1.171875 -1.78125 1.0625 -1.796875 C 1.109375 -1.453125 1.265625 -1.164062 1.53125 -0.929688 C 1.796875 -0.699219 2.109375 -0.582031 2.476562 -0.582031 C 2.722656 -0.582031 2.953125 -0.636719 3.164062 -0.75 C 3.375 -0.863281 3.546875 -1.011719 3.675781 -1.195312 L 3.867188 -0.402344 C 3.683594 -0.25 3.472656 -0.132812 3.230469 -0.046875 C 2.992188 0.0351562 2.738281 0.078125 2.472656 0.078125 Z M 1.042969 -2.269531 C 1.273438 -2.308594 1.507812 -2.328125 1.746094 -2.328125 L 3.035156 -2.328125 C 3.128906 -2.328125 3.222656 -2.324219 3.316406 -2.320312 C 3.40625 -2.3125 3.503906 -2.304688 3.597656 -2.296875 C 3.535156 -2.597656 3.386719 -2.847656 3.144531 -3.042969 C 2.902344 -3.238281 2.628906 -3.339844 2.324219 -3.339844 C 2.007812 -3.339844 1.730469 -3.234375 1.496094 -3.023438 C 1.257812 -2.816406 1.105469 -2.5625 1.042969 -2.269531 Z M 1.042969 -2.269531 "/></g></g></g><g fill="#1e293b" fill-opacity="1"><g transform="translate(54.094759, 10.229145)"><g><path d="M 2.40625 0.078125 C 2.027344 0.078125 1.683594 -0.0117188 1.371094 -0.195312 C 1.0625 -0.375 0.8125 -0.617188 0.628906 -0.925781 C 0.441406 -1.230469 0.347656 -1.570312 0.347656 -1.941406 C 0.347656 -2.3125 0.441406 -2.648438 0.628906 -2.957031 C 0.8125 -3.261719 1.0625 -3.507812 1.371094 -3.6875 C 1.683594 -3.867188 2.027344 -3.960938 2.40625 -3.960938 C 2.6875 -3.960938 2.949219 -3.910156 3.195312 -3.808594 C 3.441406 -3.710938 3.65625 -3.578125 3.84375 -3.414062 L 3.628906 -2.535156 C 3.519531 -2.75 3.359375 -2.933594 3.140625 -3.078125 C 2.921875 -3.226562 2.675781 -3.300781 2.398438 -3.300781 C 2.148438 -3.300781 1.921875 -3.238281 1.71875 -3.113281 C 1.511719 -2.992188 1.351562 -2.828125 1.230469 -2.625 C 1.109375 -2.417969 1.046875 -2.191406 1.046875 -1.941406 C 1.046875 -1.695312 1.109375 -1.46875 1.230469 -1.261719 C 1.351562 -1.054688 1.511719 -0.890625 1.71875 -0.765625 C 1.921875 -0.644531 2.148438 -0.582031 2.398438 -0.582031 C 2.675781 -0.582031 2.921875 -0.652344 3.140625 -0.796875 C 3.359375 -0.9375 3.519531 -1.121094 3.628906 -1.34375 L 3.84375 -0.464844 C 3.65625 -0.300781 3.441406 -0.171875 3.195312 -0.0703125 C 2.949219 0.0273438 2.6875 0.078125 2.40625 0.078125 Z M 2.40625 0.078125 "/></g></g></g><g fill="#1e293b" fill-opacity="1"><g transform="translate(58.170303, 10.229145)"><g><path d="M 2.394531 0.078125 C 2.019531 0.078125 1.675781 -0.0117188 1.363281 -0.195312 C 1.054688 -0.375 0.808594 -0.617188 0.625 -0.925781 C 0.441406 -1.230469 0.347656 -1.570312 0.347656 -1.941406 C 0.347656 -2.316406 0.441406 -2.65625 0.625 -2.960938 C 0.808594 -3.265625 1.054688 -3.507812 1.363281 -3.6875 C 1.675781 -3.867188 2.019531 -3.960938 2.394531 -3.960938 C 2.773438 -3.960938 3.117188 -3.867188 3.425781 -3.6875 C 3.734375 -3.507812 3.980469 -3.265625 4.164062 -2.960938 C 4.347656 -2.65625 4.4375 -2.316406 4.4375 -1.941406 C 4.4375 -1.570312 4.347656 -1.230469 4.164062 -0.925781 C 3.980469 -0.617188 3.734375 -0.375 3.425781 -0.195312 C 3.117188 -0.0117188 2.773438 0.078125 2.394531 0.078125 Z M 2.394531 -0.582031 C 2.644531 -0.582031 2.871094 -0.644531 3.074219 -0.765625 C 3.277344 -0.890625 3.4375 -1.054688 3.558594 -1.257812 C 3.679688 -1.464844 3.738281 -1.691406 3.738281 -1.941406 C 3.738281 -2.191406 3.679688 -2.417969 3.558594 -2.625 C 3.4375 -2.828125 3.277344 -2.992188 3.074219 -3.113281 C 2.871094 -3.238281 2.644531 -3.300781 2.394531 -3.300781 C 2.144531 -3.300781 1.917969 -3.238281 1.714844 -3.113281 C 1.511719 -2.992188 1.351562 -2.828125 1.230469 -2.625 C 1.109375 -2.417969 1.046875 -2.191406 1.046875 -1.941406 C 1.046875 -1.691406 1.109375 -1.464844 1.230469 -1.257812 C 1.351562 -1.054688 1.511719 -0.890625 1.714844 -0.765625 C 1.917969 -0.644531 2.144531 -0.582031 2.394531 -0.582031 Z M 2.394531 -0.582031 "/></g></g></g><g fill="#1e293b" fill-opacity="1"><g transform="translate(62.957458, 10.229145)"><g><path d="M 2.285156 0.0507812 C 1.929688 0.0507812 1.605469 -0.0390625 1.3125 -0.214844 C 1.019531 -0.394531 0.785156 -0.636719 0.613281 -0.9375 C 0.4375 -1.238281 0.347656 -1.574219 0.347656 -1.941406 C 0.347656 -2.308594 0.4375 -2.640625 0.613281 -2.945312 C 0.785156 -3.246094 1.019531 -3.484375 1.3125 -3.664062 C 1.605469 -3.84375 1.929688 -3.933594 2.285156 -3.933594 C 2.539062 -3.933594 2.777344 -3.886719 3 -3.796875 C 3.226562 -3.707031 3.425781 -3.582031 3.597656 -3.421875 L 3.597656 -6.210938 L 4.296875 -6.210938 L 4.296875 0 L 3.648438 0 L 3.648438 -0.511719 C 3.476562 -0.339844 3.273438 -0.203125 3.039062 -0.101562 C 2.800781 0 2.550781 0.0507812 2.285156 0.0507812 Z M 2.375 -0.582031 C 2.621094 -0.582031 2.84375 -0.644531 3.042969 -0.765625 C 3.246094 -0.890625 3.402344 -1.054688 3.523438 -1.257812 C 3.640625 -1.464844 3.699219 -1.691406 3.699219 -1.941406 C 3.699219 -2.191406 3.640625 -2.417969 3.523438 -2.625 C 3.402344 -2.828125 3.246094 -2.992188 3.042969 -3.113281 C 2.84375 -3.238281 2.621094 -3.300781 2.375 -3.300781 C 2.128906 -3.300781 1.90625 -3.238281 1.703125 -3.113281 C 1.503906 -2.992188 1.34375 -2.828125 1.226562 -2.625 C 1.105469 -2.417969 1.046875 -2.191406 1.046875 -1.941406 C 1.046875 -1.691406 1.105469 -1.464844 1.226562 -1.257812 C 1.34375 -1.054688 1.503906 -0.890625 1.703125 -0.765625 C 1.90625 -0.644531 2.128906 -0.582031 2.375 -0.582031 Z M 2.375 -0.582031 "/></g></g></g><g fill="#1e293b" fill-opacity="1"><g transform="translate(67.87399, 10.229145)"><g><path d="M 2.472656 0.078125 C 2.066406 0.078125 1.703125 -0.0117188 1.382812 -0.195312 C 1.058594 -0.375 0.808594 -0.621094 0.625 -0.933594 C 0.441406 -1.246094 0.347656 -1.597656 0.347656 -1.980469 C 0.347656 -2.347656 0.4375 -2.679688 0.613281 -2.980469 C 0.792969 -3.277344 1.03125 -3.515625 1.328125 -3.695312 C 1.628906 -3.871094 1.960938 -3.960938 2.324219 -3.960938 C 2.679688 -3.960938 3.007812 -3.875 3.304688 -3.703125 C 3.601562 -3.535156 3.839844 -3.304688 4.015625 -3.015625 C 4.195312 -2.726562 4.28125 -2.398438 4.28125 -2.03125 L 4.28125 -1.746094 L 1.746094 -1.746094 C 1.632812 -1.746094 1.519531 -1.75 1.402344 -1.757812 C 1.289062 -1.769531 1.171875 -1.78125 1.0625 -1.796875 C 1.109375 -1.453125 1.265625 -1.164062 1.53125 -0.929688 C 1.796875 -0.699219 2.109375 -0.582031 2.476562 -0.582031 C 2.722656 -0.582031 2.953125 -0.636719 3.164062 -0.75 C 3.375 -0.863281 3.546875 -1.011719 3.675781 -1.195312 L 3.867188 -0.402344 C 3.683594 -0.25 3.472656 -0.132812 3.230469 -0.046875 C 2.992188 0.0351562 2.738281 0.078125 2.472656 0.078125 Z M 1.042969 -2.269531 C 1.273438 -2.308594 1.507812 -2.328125 1.746094 -2.328125 L 3.035156 -2.328125 C 3.128906 -2.328125 3.222656 -2.324219 3.316406 -2.320312 C 3.40625 -2.3125 3.503906 -2.304688 3.597656 -2.296875 C 3.535156 -2.597656 3.386719 -2.847656 3.144531 -3.042969 C 2.902344 -3.238281 2.628906 -3.339844 2.324219 -3.339844 C 2.007812 -3.339844 1.730469 -3.234375 1.496094 -3.023438 C 1.257812 -2.816406 1.105469 -2.5625 1.042969 -2.269531 Z M 1.042969 -2.269531 "/></g></g></g><g fill="#1e293b" fill-opacity="1"><g transform="translate(72.467065, 10.229145)"><g><path d="M 2.285156 0.0507812 C 1.929688 0.0507812 1.605469 -0.0390625 1.3125 -0.214844 C 1.019531 -0.394531 0.785156 -0.636719 0.613281 -0.9375 C 0.4375 -1.238281 0.347656 -1.574219 0.347656 -1.941406 C 0.347656 -2.308594 0.4375 -2.640625 0.613281 -2.945312 C 0.785156 -3.246094 1.019531 -3.484375 1.3125 -3.664062 C 1.605469 -3.84375 1.929688 -3.933594 2.285156 -3.933594 C 2.539062 -3.933594 2.777344 -3.886719 3 -3.796875 C 3.226562 -3.707031 3.425781 -3.582031 3.597656 -3.421875 L 3.597656 -6.210938 L 4.296875 -6.210938 L 4.296875 0 L 3.648438 0 L 3.648438 -0.511719 C 3.476562 -0.339844 3.273438 -0.203125 3.039062 -0.101562 C 2.800781 0 2.550781 0.0507812 2.285156 0.0507812 Z M 2.375 -0.582031 C 2.621094 -0.582031 2.84375 -0.644531 3.042969 -0.765625 C 3.246094 -0.890625 3.402344 -1.054688 3.523438 -1.257812 C 3.640625 -1.464844 3.699219 -1.691406 3.699219 -1.941406 C 3.699219 -2.191406 3.640625 -2.417969 3.523438 -2.625 C 3.402344 -2.828125 3.246094 -2.992188 3.042969 -3.113281 C 2.84375 -3.238281 2.621094 -3.300781 2.375 -3.300781 C 2.128906 -3.300781 1.90625 -3.238281 1.703125 -3.113281 C 1.503906 -2.992188 1.34375 -2.828125 1.226562 -2.625 C 1.105469 -2.417969 1.046875 -2.191406 1.046875 -1.941406 C 1.046875 -1.691406 1.105469 -1.464844 1.226562 -1.257812 C 1.34375 -1.054688 1.503906 -0.890625 1.703125 -0.765625 C 1.90625 -0.644531 2.128906 -0.582031 2.375 -0.582031 Z M 2.375 -0.582031 "/></g></g></g></g></g><g clip-path="url(#bf12b3c058)"><g clip-path="url(#083d254923)"><g clip-path="url(#5c97a468fc)"><path fill="#1e293b" d="M 94.898438 7.984375 C 89.355469 6.097656 56.898438 -3.613281 24.644531 15.132812 C 24.644531 15.132812 59.816406 -2.964844 95.007812 12.492188 L 94.898438 7.984375 " fill-opacity="1" fill-rule="nonzero"/></g></g></g><g clip-path="url(#f390b09962)"><g clip-path="url(#e39ca663f5)"><g clip-path="url(#a6c4cf6622)"><path fill="#1e293b" d="M 103.371094 20.453125 L 101.949219 13.167969 L 108.4375 9.5625 L 101.070312 8.664062 L 99.648438 1.378906 L 96.515625 8.109375 L 94.582031 12.269531 L 91.449219 18.996094 L 97.9375 15.394531 L 103.371094 20.453125 " fill-opacity="1" fill-rule="nonzero"/></g></g></g></g></g></svg>