<svg xmlns="http://www.w3.org/2000/svg" xmlns:xlink="http://www.w3.org/1999/xlink" width="2000" zoomAndPan="magnify" viewBox="0 0 1500 1499.999933" height="2000" preserveAspectRatio="xMidYMid meet" version="1.0"><defs><g/><clipPath id="4a8e21481f"><path d="M 0.960938 185 L 940.558594 185 L 940.558594 466 L 0.960938 466 Z M 0.960938 185 " clip-rule="nonzero"/></clipPath><clipPath id="d4adb55cff"><rect x="0" width="941" y="0" height="281"/></clipPath><clipPath id="e1d3232fb9"><path d="M 347 392 L 934 392 L 934 486.121094 L 347 486.121094 Z M 347 392 " clip-rule="nonzero"/></clipPath><clipPath id="239b0bd991"><rect x="0" width="587" y="0" height="95"/></clipPath><clipPath id="bbdebeecd9"><path d="M 182 163 L 718 163 L 718 250 L 182 250 Z M 182 163 " clip-rule="nonzero"/></clipPath><clipPath id="51fef20092"><path d="M 254.914062 0.839844 L 830.226562 168.273438 L 757.660156 417.617188 L 182.347656 250.179688 Z M 254.914062 0.839844 " clip-rule="nonzero"/></clipPath><clipPath id="0ff53461df"><path d="M 254.914062 0.839844 L 830.226562 168.273438 L 757.660156 417.617188 L 182.347656 250.179688 Z M 254.914062 0.839844 " clip-rule="nonzero"/></clipPath><clipPath id="8bac41b43f"><path d="M 690 145 L 819 145 L 819 291 L 690 291 Z M 690 145 " clip-rule="nonzero"/></clipPath><clipPath id="f3a56e99de"><path d="M 254.914062 0.839844 L 830.226562 168.273438 L 757.660156 417.617188 L 182.347656 250.179688 Z M 254.914062 0.839844 " clip-rule="nonzero"/></clipPath><clipPath id="4cffb6b317"><path d="M 254.914062 0.839844 L 830.226562 168.273438 L 757.660156 417.617188 L 182.347656 250.179688 Z M 254.914062 0.839844 " clip-rule="nonzero"/></clipPath><clipPath id="60648703ce"><rect x="0" width="941" y="0" height="487"/></clipPath></defs><g transform="matrix(1, 0, 0, 1, 276, 471)"><g clip-path="url(#60648703ce)"><g clip-path="url(#4a8e21481f)"><g transform="matrix(1, 0, 0, 1, 0, 185)"><g clip-path="url(#d4adb55cff)"><g fill="#ffffff" fill-opacity="1"><g transform="translate(1.454138, 221.159983)"><g><path d="M 142.390625 12.734375 L 90.765625 -124.328125 L 39.125 12.734375 L 2.3125 -157.4375 L 18.984375 -157.4375 L 43.296875 -43.0625 L 90.765625 -166.703125 L 138 -43.0625 L 162.53125 -157.4375 L 178.96875 -157.4375 Z M 142.390625 12.734375 "/></g></g></g><g fill="#fcd34d" fill-opacity="1"><g transform="translate(167.67607, 221.159983)"><g><path d="M 98.40625 -50.9375 C 98.40625 -60.8125 95.007812 -69.457031 88.21875 -76.875 C 81.269531 -84.28125 72.703125 -87.984375 62.515625 -87.984375 C 52.328125 -87.984375 43.835938 -84.28125 37.046875 -76.875 C 30.097656 -69.457031 26.625 -60.8125 26.625 -50.9375 C 26.625 -41.0625 30.097656 -32.414062 37.046875 -25 C 43.835938 -17.59375 52.328125 -13.890625 62.515625 -13.890625 C 72.703125 -13.890625 81.269531 -17.59375 88.21875 -25 C 95.007812 -32.414062 98.40625 -41.0625 98.40625 -50.9375 Z M 114.609375 0 L 98.40625 0 L 98.40625 -17.359375 C 97.476562 -16.128906 96.550781 -14.972656 95.625 -13.890625 C 85.894531 -3.085938 74.007812 2.3125 59.96875 2.3125 C 45.914062 2.3125 34.109375 -3.085938 24.546875 -13.890625 C 15.128906 -24.390625 10.421875 -36.738281 10.421875 -50.9375 C 10.421875 -65.132812 15.128906 -77.484375 24.546875 -87.984375 C 34.109375 -98.785156 45.914062 -104.1875 59.96875 -104.1875 C 74.007812 -104.1875 85.894531 -98.785156 95.625 -87.984375 C 96.550781 -86.898438 97.476562 -85.742188 98.40625 -84.515625 L 98.40625 -101.875 L 114.609375 -101.875 Z M 114.609375 0 "/></g></g></g><g fill="#fcd34d" fill-opacity="1"><g transform="translate(284.577309, 221.159983)"><g><path d="M 30.328125 57.875 L 10.65625 57.875 L 44.921875 -16.671875 L 2.3125 -101.875 L 20.84375 -101.875 L 53.484375 -33.578125 L 82.65625 -101.875 L 100.71875 -101.875 Z M 30.328125 57.875 "/></g></g></g><g fill="#ffffff" fill-opacity="1"><g transform="translate(367.934316, 221.159983)"><g><path d="M 14.59375 0 L 96.078125 -82.1875 C 103.023438 -89.132812 106.5 -97.625 106.5 -107.65625 C 106.5 -117.539062 102.953125 -125.957031 95.859375 -132.90625 C 88.597656 -139.84375 79.953125 -143.3125 69.921875 -143.3125 C 59.578125 -143.3125 50.859375 -139.453125 43.765625 -131.734375 C 36.203125 -123.710938 32.878906 -114.835938 33.796875 -105.109375 L 17.359375 -105.109375 C 16.742188 -120.242188 21.6875 -133.132812 32.1875 -143.78125 C 42.675781 -154.582031 55.484375 -159.984375 70.609375 -159.984375 C 85.117188 -159.984375 97.703125 -154.890625 108.359375 -144.703125 C 118.703125 -134.515625 123.875 -122.09375 123.875 -107.4375 C 123.875 -93.070312 118.78125 -80.796875 108.59375 -70.609375 L 53.71875 -16.203125 L 125.484375 -16.203125 L 125.484375 0 Z M 14.59375 0 "/></g></g></g><g fill="#fcd34d" fill-opacity="1"><g transform="translate(495.280474, 221.159983)"><g><path d="M 42.828125 -57.875 L 100.015625 -57.875 L 71.546875 -130.359375 Z M 140.546875 0 L 122.9375 0 L 106.046875 -42.828125 L 36.8125 -42.828125 L 19.90625 0 L 2.3125 0 L 71.546875 -168.328125 Z M 140.546875 0 "/></g></g></g><g fill="#fcd34d" fill-opacity="1"><g transform="translate(623.061936, 221.159983)"><g><path d="M 32.1875 -14.59375 C 36.195312 -11.8125 41.441406 -10.421875 47.921875 -10.421875 C 62.742188 -10.421875 70.15625 -15.976562 70.15625 -27.09375 C 70.15625 -33.570312 64.828125 -38.507812 54.171875 -41.90625 C 49.703125 -43.445312 44.921875 -44.835938 39.828125 -46.078125 C 34.578125 -47.304688 29.710938 -48.925781 25.234375 -50.9375 C 19.984375 -53.40625 16.046875 -56.492188 13.421875 -60.203125 C 10.804688 -63.898438 9.5 -68.296875 9.5 -73.390625 C 9.5 -83.578125 13.046875 -91.21875 20.140625 -96.3125 C 27.242188 -101.5625 35.734375 -104.1875 45.609375 -104.1875 C 55.484375 -104.1875 63.664062 -102.179688 70.15625 -98.171875 C 76.632812 -94.160156 81.03125 -86.984375 83.34375 -76.640625 L 65.984375 -76.640625 C 64.128906 -82.347656 61.425781 -86.128906 57.875 -87.984375 C 54.488281 -89.835938 50.25 -90.765625 45.15625 -90.765625 C 40.0625 -90.765625 35.738281 -89.679688 32.1875 -87.515625 C 28.476562 -85.203125 26.625 -81.804688 26.625 -77.328125 C 26.625 -72.703125 28.164062 -69.304688 31.25 -67.140625 C 34.1875 -65.140625 37.894531 -63.363281 42.375 -61.8125 C 46.84375 -60.425781 51.703125 -59.191406 56.953125 -58.109375 C 62.046875 -56.878906 66.910156 -55.179688 71.546875 -53.015625 C 82.035156 -48.078125 87.28125 -40.128906 87.28125 -29.171875 C 87.28125 -18.210938 83.347656 -10.109375 75.484375 -4.859375 C 71.460938 -2.234375 67.0625 -0.226562 62.28125 1.15625 C 57.65625 2.394531 52.5625 3.015625 47 3.015625 C 23.382812 3.015625 9.800781 -7.484375 6.25 -28.484375 L 23.390625 -28.484375 C 25.085938 -21.835938 28.019531 -17.207031 32.1875 -14.59375 Z M 32.1875 -14.59375 "/></g></g></g><g fill="#fcd34d" fill-opacity="1"><g transform="translate(701.07205, 221.159983)"><g><path d="M 4.625 -86.828125 L 4.625 -101.875 L 30.09375 -101.875 L 30.09375 -141.46875 L 46.3125 -141.46875 L 46.3125 -101.875 L 71.546875 -101.875 L 71.546875 -86.828125 L 46.3125 -86.828125 L 46.3125 0 L 30.09375 0 L 30.09375 -86.828125 Z M 4.625 -86.828125 "/></g></g></g><g fill="#fcd34d" fill-opacity="1"><g transform="translate(762.183063, 221.159983)"><g><path d="M 69.6875 -80.796875 C 65.988281 -84.191406 61.976562 -85.890625 57.65625 -85.890625 C 53.488281 -85.890625 49.9375 -84.734375 47 -82.421875 C 43.914062 -79.953125 41.367188 -77.019531 39.359375 -73.625 C 35.503906 -66.832031 33.578125 -59.269531 33.578125 -50.9375 L 33.578125 0 L 17.359375 0 L 17.359375 -101.875 L 33.578125 -101.875 L 33.578125 -80.796875 L 34.265625 -84.96875 C 39.671875 -97.625 48.082031 -103.953125 59.5 -103.953125 C 63.050781 -103.953125 66.445312 -103.257812 69.6875 -101.875 Z M 69.6875 -80.796875 "/></g></g></g><g fill="#fcd34d" fill-opacity="1"><g transform="translate(819.127186, 221.159983)"><g><path d="M 100.71875 -51.40625 C 100.71875 -61.59375 97.085938 -70.3125 89.828125 -77.5625 C 82.578125 -84.8125 73.859375 -88.4375 63.671875 -88.4375 C 53.484375 -88.4375 44.765625 -84.8125 37.515625 -77.5625 C 30.253906 -70.3125 26.625 -61.59375 26.625 -51.40625 C 26.625 -41.363281 30.253906 -32.71875 37.515625 -25.46875 C 44.765625 -18.21875 53.484375 -14.59375 63.671875 -14.59375 C 73.859375 -14.59375 82.578125 -18.21875 89.828125 -25.46875 C 97.085938 -32.71875 100.71875 -41.363281 100.71875 -51.40625 Z M 116.921875 -51.40625 C 116.921875 -36.582031 111.75 -24.078125 101.40625 -13.890625 C 90.757812 -3.546875 78.179688 1.625 63.671875 1.625 C 49.160156 1.625 36.65625 -3.546875 26.15625 -13.890625 C 15.664062 -24.078125 10.421875 -36.582031 10.421875 -51.40625 C 10.421875 -66.0625 15.664062 -78.640625 26.15625 -89.140625 C 36.5 -99.484375 49.003906 -104.65625 63.671875 -104.65625 C 78.335938 -104.65625 90.914062 -99.484375 101.40625 -89.140625 C 111.75 -78.640625 116.921875 -66.0625 116.921875 -51.40625 Z M 116.921875 -51.40625 "/></g></g></g></g></g></g><g clip-path="url(#e1d3232fb9)"><g transform="matrix(1, 0, 0, 1, 347, 392)"><g clip-path="url(#239b0bd991)"><g fill="#ffffff" fill-opacity="1"><g transform="translate(0.513944, 69.918787)"><g><path d="M 2.355469 -39.191406 L 2.355469 -44.199219 L 31.527344 -44.199219 L 31.527344 -39.191406 L 19.742188 -39.191406 L 19.742188 0 L 14.144531 0 L 14.144531 -39.191406 Z M 2.355469 -39.191406 "/></g></g></g><g fill="#ffffff" fill-opacity="1"><g transform="translate(34.398952, 69.918787)"><g><path d="M 4.714844 0 L 4.714844 -47.144531 L 10.019531 -47.144531 L 10.019531 -25.292969 C 11.132812 -26.832031 12.507812 -28.007812 14.144531 -28.828125 C 15.78125 -29.644531 17.53125 -30.054688 19.398438 -30.054688 C 21.492188 -30.054688 23.433594 -29.539062 25.21875 -28.507812 C 27.003906 -27.476562 28.449219 -25.988281 29.5625 -24.039062 C 30.675781 -22.089844 31.234375 -19.726562 31.234375 -16.941406 L 31.234375 0 L 25.929688 0 L 25.929688 -16.207031 C 25.929688 -18.53125 25.234375 -20.585938 23.84375 -22.371094 C 22.453125 -24.152344 20.496094 -25.046875 17.972656 -25.046875 C 15.910156 -25.046875 14.070312 -24.300781 12.449219 -22.8125 C 10.828125 -21.320312 10.019531 -19.167969 10.019531 -16.355469 L 10.019531 0 Z M 4.714844 0 "/></g></g></g><g fill="#ffffff" fill-opacity="1"><g transform="translate(69.757214, 69.918787)"><g><path d="M 18.761719 0.589844 C 15.683594 0.589844 12.925781 -0.0976562 10.484375 -1.472656 C 8.046875 -2.847656 6.128906 -4.722656 4.738281 -7.097656 C 3.347656 -9.46875 2.652344 -12.113281 2.652344 -15.027344 C 2.652344 -17.808594 3.324219 -20.339844 4.664062 -22.613281 C 6.007812 -24.890625 7.816406 -26.699219 10.09375 -28.042969 C 12.367188 -29.382812 14.878906 -30.054688 17.628906 -30.054688 C 20.347656 -30.054688 22.835938 -29.410156 25.09375 -28.117188 C 27.355469 -26.820312 29.15625 -25.078125 30.496094 -22.886719 C 31.839844 -20.691406 32.511719 -18.203125 32.511719 -15.421875 L 32.511719 -13.257812 L 13.257812 -13.257812 C 12.410156 -13.257812 11.539062 -13.292969 10.65625 -13.359375 C 9.773438 -13.421875 8.90625 -13.523438 8.054688 -13.652344 C 8.414062 -11.035156 9.601562 -8.839844 11.613281 -7.070312 C 13.628906 -5.304688 16.027344 -4.417969 18.808594 -4.417969 C 20.675781 -4.417969 22.410156 -4.84375 24.015625 -5.695312 C 25.617188 -6.546875 26.914062 -7.675781 27.894531 -9.085938 L 29.367188 -3.042969 C 27.960938 -1.898438 26.347656 -1.007812 24.53125 -0.367188 C 22.714844 0.269531 20.789062 0.589844 18.761719 0.589844 Z M 7.90625 -17.238281 C 9.675781 -17.53125 11.457031 -17.679688 13.257812 -17.679688 L 23.03125 -17.679688 C 23.753906 -17.679688 24.464844 -17.65625 25.167969 -17.605469 C 25.871094 -17.558594 26.585938 -17.5 27.304688 -17.433594 C 26.847656 -19.726562 25.699219 -21.617188 23.867188 -23.105469 C 22.035156 -24.597656 19.953125 -25.339844 17.628906 -25.339844 C 15.242188 -25.339844 13.144531 -24.546875 11.34375 -22.957031 C 9.542969 -21.371094 8.398438 -19.464844 7.90625 -17.238281 Z M 7.90625 -17.238281 "/></g></g></g><g fill="#ffffff" fill-opacity="1"><g transform="translate(104.624396, 69.918787)"><g/></g></g><g fill="#ffffff" fill-opacity="1"><g transform="translate(119.357004, 69.918787)"><g><path d="M 6.1875 0 L 6.1875 -44.199219 L 27.992188 -44.199219 L 27.992188 -39.191406 L 11.785156 -39.191406 L 11.785156 -29.761719 L 26.519531 -29.761719 L 26.519531 -24.75 L 11.785156 -24.75 L 11.785156 0 Z M 6.1875 0 "/></g></g></g><g fill="#ffffff" fill-opacity="1"><g transform="translate(148.822222, 69.918787)"><g><path d="M 15.960938 0.589844 C 13.898438 0.589844 11.964844 0.0742188 10.164062 -0.957031 C 8.363281 -1.988281 6.90625 -3.488281 5.796875 -5.453125 C 4.683594 -7.414062 4.125 -9.773438 4.125 -12.523438 L 4.125 -29.464844 L 9.429688 -29.464844 L 9.429688 -13.257812 C 9.429688 -10.933594 10.125 -8.878906 11.515625 -7.097656 C 12.90625 -5.3125 14.863281 -4.417969 17.386719 -4.417969 C 19.449219 -4.417969 21.289062 -5.164062 22.910156 -6.65625 C 24.53125 -8.144531 25.339844 -10.296875 25.339844 -13.113281 L 25.339844 -29.464844 L 30.644531 -29.464844 L 30.644531 0 L 25.734375 0 L 25.734375 -4.761719 C 24.652344 -3.027344 23.253906 -1.703125 21.535156 -0.785156 C 19.816406 0.132812 17.957031 0.589844 15.960938 0.589844 Z M 15.960938 0.589844 "/></g></g></g><g fill="#ffffff" fill-opacity="1"><g transform="translate(184.180484, 69.918787)"><g><path d="M 8.152344 0 L 8.152344 -25.046875 L 1.472656 -25.046875 L 1.472656 -29.464844 L 8.300781 -29.464844 L 8.300781 -39.289062 L 13.308594 -39.289062 L 13.308594 -29.464844 L 20.625 -29.464844 L 20.625 -25.046875 L 13.457031 -25.046875 L 13.457031 0 Z M 8.152344 0 "/></g></g></g><g fill="#ffffff" fill-opacity="1"><g transform="translate(206.279405, 69.918787)"><g><path d="M 15.960938 0.589844 C 13.898438 0.589844 11.964844 0.0742188 10.164062 -0.957031 C 8.363281 -1.988281 6.90625 -3.488281 5.796875 -5.453125 C 4.683594 -7.414062 4.125 -9.773438 4.125 -12.523438 L 4.125 -29.464844 L 9.429688 -29.464844 L 9.429688 -13.257812 C 9.429688 -10.933594 10.125 -8.878906 11.515625 -7.097656 C 12.90625 -5.3125 14.863281 -4.417969 17.386719 -4.417969 C 19.449219 -4.417969 21.289062 -5.164062 22.910156 -6.65625 C 24.53125 -8.144531 25.339844 -10.296875 25.339844 -13.113281 L 25.339844 -29.464844 L 30.644531 -29.464844 L 30.644531 0 L 25.734375 0 L 25.734375 -4.761719 C 24.652344 -3.027344 23.253906 -1.703125 21.535156 -0.785156 C 19.816406 0.132812 17.957031 0.589844 15.960938 0.589844 Z M 15.960938 0.589844 "/></g></g></g><g fill="#ffffff" fill-opacity="1"><g transform="translate(241.637667, 69.918787)"><g><path d="M 4.714844 0 L 4.714844 -29.464844 L 9.625 -29.464844 L 9.625 -24.0625 C 10.671875 -25.800781 12.066406 -27.183594 13.800781 -28.214844 C 15.535156 -29.246094 17.597656 -29.761719 19.988281 -29.761719 L 21.3125 -24.457031 C 20.691406 -24.652344 19.972656 -24.75 19.152344 -24.75 C 16.402344 -24.75 14.191406 -23.875 12.523438 -22.125 C 10.851562 -20.371094 10.019531 -17.875 10.019531 -14.632812 L 10.019531 0 Z M 4.714844 0 "/></g></g></g><g fill="#ffffff" fill-opacity="1"><g transform="translate(263.736588, 69.918787)"><g><path d="M 18.761719 0.589844 C 15.683594 0.589844 12.925781 -0.0976562 10.484375 -1.472656 C 8.046875 -2.847656 6.128906 -4.722656 4.738281 -7.097656 C 3.347656 -9.46875 2.652344 -12.113281 2.652344 -15.027344 C 2.652344 -17.808594 3.324219 -20.339844 4.664062 -22.613281 C 6.007812 -24.890625 7.816406 -26.699219 10.09375 -28.042969 C 12.367188 -29.382812 14.878906 -30.054688 17.628906 -30.054688 C 20.347656 -30.054688 22.835938 -29.410156 25.09375 -28.117188 C 27.355469 -26.820312 29.15625 -25.078125 30.496094 -22.886719 C 31.839844 -20.691406 32.511719 -18.203125 32.511719 -15.421875 L 32.511719 -13.257812 L 13.257812 -13.257812 C 12.410156 -13.257812 11.539062 -13.292969 10.65625 -13.359375 C 9.773438 -13.421875 8.90625 -13.523438 8.054688 -13.652344 C 8.414062 -11.035156 9.601562 -8.839844 11.613281 -7.070312 C 13.628906 -5.304688 16.027344 -4.417969 18.808594 -4.417969 C 20.675781 -4.417969 22.410156 -4.84375 24.015625 -5.695312 C 25.617188 -6.546875 26.914062 -7.675781 27.894531 -9.085938 L 29.367188 -3.042969 C 27.960938 -1.898438 26.347656 -1.007812 24.53125 -0.367188 C 22.714844 0.269531 20.789062 0.589844 18.761719 0.589844 Z M 7.90625 -17.238281 C 9.675781 -17.53125 11.457031 -17.679688 13.257812 -17.679688 L 23.03125 -17.679688 C 23.753906 -17.679688 24.464844 -17.65625 25.167969 -17.605469 C 25.871094 -17.558594 26.585938 -17.5 27.304688 -17.433594 C 26.847656 -19.726562 25.699219 -21.617188 23.867188 -23.105469 C 22.035156 -24.597656 19.953125 -25.339844 17.628906 -25.339844 C 15.242188 -25.339844 13.144531 -24.546875 11.34375 -22.957031 C 9.542969 -21.371094 8.398438 -19.464844 7.90625 -17.238281 Z M 7.90625 -17.238281 "/></g></g></g><g fill="#ffffff" fill-opacity="1"><g transform="translate(298.603769, 69.918787)"><g><path d="M 0.292969 7.367188 C 1.769531 5.53125 2.953125 3.40625 3.855469 0.980469 C 4.753906 -1.441406 5.207031 -4.222656 5.207031 -7.367188 L 10.507812 -7.367188 C 10.507812 -4.582031 10.125 -1.957031 9.355469 0.515625 C 8.585938 2.988281 7.53125 5.269531 6.1875 7.367188 Z M 0.292969 7.367188 "/></g></g></g><g fill="#ffffff" fill-opacity="1"><g transform="translate(311.863125, 69.918787)"><g/></g></g><g fill="#ffffff" fill-opacity="1"><g transform="translate(326.595748, 69.918787)"><g><path d="M 6.1875 0 L 6.1875 -44.199219 L 20.675781 -44.199219 C 24.667969 -44.199219 28.148438 -43.542969 31.109375 -42.234375 C 34.074219 -40.925781 36.519531 -39.191406 38.453125 -37.027344 C 40.382812 -34.867188 41.824219 -32.484375 42.773438 -29.882812 C 43.722656 -27.28125 44.199219 -24.6875 44.199219 -22.097656 C 44.199219 -19.511719 43.722656 -16.917969 42.773438 -14.316406 C 41.824219 -11.710938 40.382812 -9.332031 38.453125 -7.171875 C 36.519531 -5.007812 34.074219 -3.273438 31.109375 -1.964844 C 28.148438 -0.65625 24.667969 0 20.675781 0 Z M 11.785156 -5.007812 L 20.085938 -5.007812 C 23.492188 -5.007812 26.355469 -5.542969 28.679688 -6.605469 C 31.003906 -7.667969 32.886719 -9.0625 34.328125 -10.78125 C 35.769531 -12.5 36.808594 -14.355469 37.445312 -16.355469 C 38.085938 -18.351562 38.402344 -20.265625 38.402344 -22.097656 C 38.402344 -23.933594 38.085938 -25.847656 37.445312 -27.84375 C 36.808594 -29.84375 35.769531 -31.699219 34.328125 -33.417969 C 32.886719 -35.136719 31.003906 -36.53125 28.679688 -37.59375 C 26.355469 -38.65625 23.492188 -39.191406 20.085938 -39.191406 L 11.785156 -39.191406 Z M 11.785156 -5.007812 "/></g></g></g><g fill="#ffffff" fill-opacity="1"><g transform="translate(373.740097, 69.918787)"><g><path d="M 18.761719 0.589844 C 15.683594 0.589844 12.925781 -0.0976562 10.484375 -1.472656 C 8.046875 -2.847656 6.128906 -4.722656 4.738281 -7.097656 C 3.347656 -9.46875 2.652344 -12.113281 2.652344 -15.027344 C 2.652344 -17.808594 3.324219 -20.339844 4.664062 -22.613281 C 6.007812 -24.890625 7.816406 -26.699219 10.09375 -28.042969 C 12.367188 -29.382812 14.878906 -30.054688 17.628906 -30.054688 C 20.347656 -30.054688 22.835938 -29.410156 25.09375 -28.117188 C 27.355469 -26.820312 29.15625 -25.078125 30.496094 -22.886719 C 31.839844 -20.691406 32.511719 -18.203125 32.511719 -15.421875 L 32.511719 -13.257812 L 13.257812 -13.257812 C 12.410156 -13.257812 11.539062 -13.292969 10.65625 -13.359375 C 9.773438 -13.421875 8.90625 -13.523438 8.054688 -13.652344 C 8.414062 -11.035156 9.601562 -8.839844 11.613281 -7.070312 C 13.628906 -5.304688 16.027344 -4.417969 18.808594 -4.417969 C 20.675781 -4.417969 22.410156 -4.84375 24.015625 -5.695312 C 25.617188 -6.546875 26.914062 -7.675781 27.894531 -9.085938 L 29.367188 -3.042969 C 27.960938 -1.898438 26.347656 -1.007812 24.53125 -0.367188 C 22.714844 0.269531 20.789062 0.589844 18.761719 0.589844 Z M 7.90625 -17.238281 C 9.675781 -17.53125 11.457031 -17.679688 13.257812 -17.679688 L 23.03125 -17.679688 C 23.753906 -17.679688 24.464844 -17.65625 25.167969 -17.605469 C 25.871094 -17.558594 26.585938 -17.5 27.304688 -17.433594 C 26.847656 -19.726562 25.699219 -21.617188 23.867188 -23.105469 C 22.035156 -24.597656 19.953125 -25.339844 17.628906 -25.339844 C 15.242188 -25.339844 13.144531 -24.546875 11.34375 -22.957031 C 9.542969 -21.371094 8.398438 -19.464844 7.90625 -17.238281 Z M 7.90625 -17.238281 "/></g></g></g><g fill="#ffffff" fill-opacity="1"><g transform="translate(408.607279, 69.918787)"><g><path d="M 18.269531 0.589844 C 15.386719 0.589844 12.769531 -0.0976562 10.410156 -1.472656 C 8.054688 -2.847656 6.171875 -4.699219 4.761719 -7.023438 C 3.355469 -9.347656 2.652344 -11.917969 2.652344 -14.734375 C 2.652344 -17.546875 3.355469 -20.117188 4.761719 -22.441406 C 6.171875 -24.769531 8.054688 -26.617188 10.410156 -27.992188 C 12.769531 -29.367188 15.386719 -30.054688 18.269531 -30.054688 C 20.398438 -30.054688 22.394531 -29.679688 24.261719 -28.925781 C 26.125 -28.171875 27.761719 -27.175781 29.171875 -25.929688 L 27.550781 -19.25 C 26.730469 -20.886719 25.496094 -22.261719 23.84375 -23.375 C 22.191406 -24.488281 20.316406 -25.046875 18.21875 -25.046875 C 16.320312 -25.046875 14.59375 -24.578125 13.039062 -23.644531 C 11.484375 -22.714844 10.246094 -21.46875 9.332031 -19.914062 C 8.414062 -18.359375 7.957031 -16.632812 7.957031 -14.734375 C 7.957031 -12.867188 8.414062 -11.148438 9.332031 -9.578125 C 10.246094 -8.003906 11.484375 -6.753906 13.039062 -5.820312 C 14.59375 -4.886719 16.320312 -4.417969 18.21875 -4.417969 C 20.316406 -4.417969 22.191406 -4.960938 23.84375 -6.039062 C 25.496094 -7.121094 26.730469 -8.511719 27.550781 -10.214844 L 29.171875 -3.535156 C 27.761719 -2.292969 26.125 -1.292969 24.261719 -0.539062 C 22.394531 0.210938 20.398438 0.589844 18.269531 0.589844 Z M 18.269531 0.589844 "/></g></g></g><g fill="#ffffff" fill-opacity="1"><g transform="translate(439.545765, 69.918787)"><g><path d="M 18.171875 0.589844 C 15.324219 0.589844 12.71875 -0.0976562 10.363281 -1.472656 C 8.003906 -2.847656 6.128906 -4.699219 4.738281 -7.023438 C 3.347656 -9.347656 2.652344 -11.917969 2.652344 -14.734375 C 2.652344 -17.582031 3.347656 -20.160156 4.738281 -22.46875 C 6.128906 -24.777344 8.003906 -26.617188 10.363281 -27.992188 C 12.71875 -29.367188 15.324219 -30.054688 18.171875 -30.054688 C 21.050781 -30.054688 23.664062 -29.367188 26.003906 -27.992188 C 28.34375 -26.617188 30.210938 -24.777344 31.601562 -22.46875 C 32.992188 -20.160156 33.6875 -17.582031 33.6875 -14.734375 C 33.6875 -11.917969 32.992188 -9.347656 31.601562 -7.023438 C 30.210938 -4.699219 28.34375 -2.847656 26.003906 -1.472656 C 23.664062 -0.0976562 21.050781 0.589844 18.171875 0.589844 Z M 18.171875 -4.417969 C 20.070312 -4.417969 21.789062 -4.886719 23.328125 -5.820312 C 24.867188 -6.753906 26.09375 -7.996094 27.011719 -9.550781 C 27.925781 -11.105469 28.386719 -12.835938 28.386719 -14.734375 C 28.386719 -16.632812 27.925781 -18.359375 27.011719 -19.914062 C 26.09375 -21.46875 24.867188 -22.714844 23.328125 -23.644531 C 21.789062 -24.578125 20.070312 -25.046875 18.171875 -25.046875 C 16.273438 -25.046875 14.554688 -24.578125 13.015625 -23.644531 C 11.476562 -22.714844 10.246094 -21.46875 9.332031 -19.914062 C 8.414062 -18.359375 7.957031 -16.632812 7.957031 -14.734375 C 7.957031 -12.835938 8.414062 -11.105469 9.332031 -9.550781 C 10.246094 -7.996094 11.476562 -6.753906 13.015625 -5.820312 C 14.554688 -4.886719 16.273438 -4.417969 18.171875 -4.417969 Z M 18.171875 -4.417969 "/></g></g></g><g fill="#ffffff" fill-opacity="1"><g transform="translate(475.886185, 69.918787)"><g><path d="M 17.335938 0.394531 C 14.652344 0.394531 12.195312 -0.285156 9.96875 -1.644531 C 7.742188 -3.003906 5.96875 -4.828125 4.640625 -7.121094 C 3.316406 -9.414062 2.652344 -11.949219 2.652344 -14.734375 C 2.652344 -17.515625 3.316406 -20.054688 4.640625 -22.34375 C 5.96875 -24.636719 7.742188 -26.460938 9.96875 -27.820312 C 12.195312 -29.179688 14.652344 -29.859375 17.335938 -29.859375 C 19.265625 -29.859375 21.085938 -29.515625 22.785156 -28.828125 C 24.488281 -28.140625 25.996094 -27.191406 27.304688 -25.980469 L 27.304688 -47.144531 L 32.609375 -47.144531 L 32.609375 0 L 27.699219 0 L 27.699219 -3.878906 C 26.386719 -2.570312 24.839844 -1.53125 23.058594 -0.761719 C 21.273438 0.0078125 19.367188 0.394531 17.335938 0.394531 Z M 18.023438 -4.417969 C 19.890625 -4.417969 21.582031 -4.886719 23.105469 -5.820312 C 24.628906 -6.753906 25.839844 -7.996094 26.742188 -9.550781 C 27.640625 -11.105469 28.089844 -12.835938 28.089844 -14.734375 C 28.089844 -16.632812 27.640625 -18.359375 26.742188 -19.914062 C 25.839844 -21.46875 24.628906 -22.714844 23.105469 -23.644531 C 21.582031 -24.578125 19.890625 -25.046875 18.023438 -25.046875 C 16.15625 -25.046875 14.460938 -24.578125 12.941406 -23.644531 C 11.417969 -22.714844 10.207031 -21.46875 9.304688 -19.914062 C 8.40625 -18.359375 7.957031 -16.632812 7.957031 -14.734375 C 7.957031 -12.835938 8.40625 -11.105469 9.304688 -9.550781 C 10.207031 -7.996094 11.417969 -6.753906 12.941406 -5.820312 C 14.460938 -4.886719 16.15625 -4.417969 18.023438 -4.417969 Z M 18.023438 -4.417969 "/></g></g></g><g fill="#ffffff" fill-opacity="1"><g transform="translate(513.208824, 69.918787)"><g><path d="M 18.761719 0.589844 C 15.683594 0.589844 12.925781 -0.0976562 10.484375 -1.472656 C 8.046875 -2.847656 6.128906 -4.722656 4.738281 -7.097656 C 3.347656 -9.46875 2.652344 -12.113281 2.652344 -15.027344 C 2.652344 -17.808594 3.324219 -20.339844 4.664062 -22.613281 C 6.007812 -24.890625 7.816406 -26.699219 10.09375 -28.042969 C 12.367188 -29.382812 14.878906 -30.054688 17.628906 -30.054688 C 20.347656 -30.054688 22.835938 -29.410156 25.09375 -28.117188 C 27.355469 -26.820312 29.15625 -25.078125 30.496094 -22.886719 C 31.839844 -20.691406 32.511719 -18.203125 32.511719 -15.421875 L 32.511719 -13.257812 L 13.257812 -13.257812 C 12.410156 -13.257812 11.539062 -13.292969 10.65625 -13.359375 C 9.773438 -13.421875 8.90625 -13.523438 8.054688 -13.652344 C 8.414062 -11.035156 9.601562 -8.839844 11.613281 -7.070312 C 13.628906 -5.304688 16.027344 -4.417969 18.808594 -4.417969 C 20.675781 -4.417969 22.410156 -4.84375 24.015625 -5.695312 C 25.617188 -6.546875 26.914062 -7.675781 27.894531 -9.085938 L 29.367188 -3.042969 C 27.960938 -1.898438 26.347656 -1.007812 24.53125 -0.367188 C 22.714844 0.269531 20.789062 0.589844 18.761719 0.589844 Z M 7.90625 -17.238281 C 9.675781 -17.53125 11.457031 -17.679688 13.257812 -17.679688 L 23.03125 -17.679688 C 23.753906 -17.679688 24.464844 -17.65625 25.167969 -17.605469 C 25.871094 -17.558594 26.585938 -17.5 27.304688 -17.433594 C 26.847656 -19.726562 25.699219 -21.617188 23.867188 -23.105469 C 22.035156 -24.597656 19.953125 -25.339844 17.628906 -25.339844 C 15.242188 -25.339844 13.144531 -24.546875 11.34375 -22.957031 C 9.542969 -21.371094 8.398438 -19.464844 7.90625 -17.238281 Z M 7.90625 -17.238281 "/></g></g></g><g fill="#ffffff" fill-opacity="1"><g transform="translate(548.076006, 69.918787)"><g><path d="M 17.335938 0.394531 C 14.652344 0.394531 12.195312 -0.285156 9.96875 -1.644531 C 7.742188 -3.003906 5.96875 -4.828125 4.640625 -7.121094 C 3.316406 -9.414062 2.652344 -11.949219 2.652344 -14.734375 C 2.652344 -17.515625 3.316406 -20.054688 4.640625 -22.34375 C 5.96875 -24.636719 7.742188 -26.460938 9.96875 -27.820312 C 12.195312 -29.179688 14.652344 -29.859375 17.335938 -29.859375 C 19.265625 -29.859375 21.085938 -29.515625 22.785156 -28.828125 C 24.488281 -28.140625 25.996094 -27.191406 27.304688 -25.980469 L 27.304688 -47.144531 L 32.609375 -47.144531 L 32.609375 0 L 27.699219 0 L 27.699219 -3.878906 C 26.386719 -2.570312 24.839844 -1.53125 23.058594 -0.761719 C 21.273438 0.0078125 19.367188 0.394531 17.335938 0.394531 Z M 18.023438 -4.417969 C 19.890625 -4.417969 21.582031 -4.886719 23.105469 -5.820312 C 24.628906 -6.753906 25.839844 -7.996094 26.742188 -9.550781 C 27.640625 -11.105469 28.089844 -12.835938 28.089844 -14.734375 C 28.089844 -16.632812 27.640625 -18.359375 26.742188 -19.914062 C 25.839844 -21.46875 24.628906 -22.714844 23.105469 -23.644531 C 21.582031 -24.578125 19.890625 -25.046875 18.023438 -25.046875 C 16.15625 -25.046875 14.460938 -24.578125 12.941406 -23.644531 C 11.417969 -22.714844 10.207031 -21.46875 9.304688 -19.914062 C 8.40625 -18.359375 7.957031 -16.632812 7.957031 -14.734375 C 7.957031 -12.835938 8.40625 -11.105469 9.304688 -9.550781 C 10.207031 -7.996094 11.417969 -6.753906 12.941406 -5.820312 C 14.460938 -4.886719 16.15625 -4.417969 18.023438 -4.417969 Z M 18.023438 -4.417969 "/></g></g></g></g></g></g><g clip-path="url(#bbdebeecd9)"><g clip-path="url(#51fef20092)"><g clip-path="url(#0ff53461df)"><path fill="#fcd34d" d="M 716.171875 195.71875 C 674.089844 181.402344 427.652344 107.667969 182.765625 249.996094 C 182.765625 249.996094 449.8125 112.585938 717.011719 229.953125 L 716.171875 195.71875 " fill-opacity="1" fill-rule="nonzero"/></g></g></g><g clip-path="url(#8bac41b43f)"><g clip-path="url(#f3a56e99de)"><g clip-path="url(#4cffb6b317)"><path fill="#fcd34d" d="M 780.515625 290.382812 L 769.714844 235.070312 L 818.988281 207.710938 L 763.046875 200.886719 L 752.253906 145.578125 L 728.472656 196.667969 L 713.78125 228.25 L 690 279.339844 L 739.273438 251.980469 L 780.515625 290.382812 " fill-opacity="1" fill-rule="nonzero"/></g></g></g></g></g></svg>